HIERARCHY
ROOT SpineBase
{
  OFFSET 0.000000 0.000000 0.000000
  CHANNELS 6 Xposition Yposition Zposition Zrotation Xrotation Yrotation
  JOINT SpineMid
  {
    OFFSET -0.000000 25.819584 0.000000
    CHANNELS 3 Zrotation Xrotation Yrotation
    JOINT SpineShoulder
    {
      OFFSET -0.125368 19.264153 -0.552902
      CHANNELS 3 Zrotation Xrotation Yrotation
      JOINT Neck
      {
        OFFSET -0.032494 6.390438 -0.451026
        CHANNELS 3 Zrotation Xrotation Yrotation
        JOINT Head
        {
          OFFSET 0.713306 14.066443 -0.228921
          CHANNELS 3 Zrotation Xrotation Yrotation
          End Site
          {
            OFFSET 0 0 0
          }
        }
      }
      JOINT ShoulderLeft
      {
        OFFSET -17.148397 -2.876883 -1.275827
        CHANNELS 3 Zrotation Xrotation Yrotation
        JOINT ElbowLeft
        {
          OFFSET -1.966337 -20.452233 -4.193047
          CHANNELS 3 Zrotation Xrotation Yrotation
          JOINT WristLeft
          {
            OFFSET 9.422711 -14.466926 -18.671444
            CHANNELS 3 Zrotation Xrotation Yrotation
            JOINT HandLeft
            {
              OFFSET 4.209439 -2.045153 -5.991524
              CHANNELS 3 Zrotation Xrotation Yrotation
              JOINT HandTipLeft
              {
                OFFSET 6.193372 -1.868758 -6.242408
                CHANNELS 3 Zrotation Xrotation Yrotation
                End Site
                {
                  OFFSET 0 0 0
                }
              }
              JOINT ThumbLeft
              {
                OFFSET -4.820356 -2.276588 -2.132841
                CHANNELS 3 Zrotation Xrotation Yrotation
                End Site
                {
                  OFFSET 0 0 0
                }
              }
            }
          }
        }
      }
      JOINT ShoulderRight
      {
        OFFSET 16.479195 -3.003933 -1.789589
        CHANNELS 3 Zrotation Xrotation Yrotation
        JOINT ElbowRight
        {
          OFFSET 2.117354 -20.732889 -4.355930
          CHANNELS 3 Zrotation Xrotation Yrotation
          JOINT WristRight
          {
            OFFSET -4.926566 -13.282117 -14.892697
            CHANNELS 3 Zrotation Xrotation Yrotation
            JOINT HandRight
            {
              OFFSET -3.442441 -3.336413 -4.992466
              CHANNELS 3 Zrotation Xrotation Yrotation
              JOINT HandTipRight
              {
                OFFSET -4.601795 -1.908474 -9.930644
                CHANNELS 3 Zrotation Xrotation Yrotation
                End Site
                {
                  OFFSET 0 0 0
                }
              }
              JOINT ThumbRight
              {
                OFFSET 1.774855 -3.166435 -1.686977
                CHANNELS 3 Zrotation Xrotation Yrotation
                End Site
                {
                  OFFSET 0 0 0
                }
              }
            }
          }
        }
      }
    }
  }
  JOINT HipLeft
  {
    OFFSET -8.055231 0.861666 -3.102312
    CHANNELS 3 Zrotation Xrotation Yrotation
    JOINT KneeLeft
    {
      OFFSET -14.445492 -4.037040 -32.678801
      CHANNELS 3 Zrotation Xrotation Yrotation
      JOINT AnkleLeft
      {
        OFFSET 3.677981 -33.878896 0.542529
        CHANNELS 3 Zrotation Xrotation Yrotation
        JOINT FootLeft
        {
          OFFSET 0.048391 -3.759452 -12.861426
          CHANNELS 3 Zrotation Xrotation Yrotation
          End Site
          {
            OFFSET 0 0 0
          }
        }
      }
    }
  }
  JOINT HipRight
  {
    OFFSET 7.775802 0.941447 -3.530204
    CHANNELS 3 Zrotation Xrotation Yrotation
    JOINT KneeRight
    {
      OFFSET 17.878778 -4.095717 -29.794665
      CHANNELS 3 Zrotation Xrotation Yrotation
      JOINT AnkleRight
      {
        OFFSET 6.176796 -31.454628 4.812463
        CHANNELS 3 Zrotation Xrotation Yrotation
        JOINT FootRight
        {
          OFFSET 6.104092 -5.769945 -4.333517
          CHANNELS 3 Zrotation Xrotation Yrotation
          End Site
          {
            OFFSET 0 0 0
          }
        }
      }
    }
  }
}
MOTION
Frames: 15
Frame Time: 0.033333
16.028722 46.519754 371.838659 -3.781423 -2.299370 -26.237733 0.592055 -0.756814 26.006853 0.705328 -1.040117 -0.146576 -19.310446 14.416645 2.879279 0.000000 0.000000 0.000000 72.703558 44.765415 -51.004859 19.176763 -45.095234 -1.458563 -19.156662 -11.041625 4.887878 -6.294694 1.316578 18.595225 0.000000 0.000000 0.000000 0.000000 0.000000 0.000000 60.510322 22.816475 -23.532547 -21.076407 22.981862 -42.407627 12.861456 -12.451420 -21.700733 12.104233 -24.098393 -1.812713 0.000000 0.000000 0.000000 0.000000 0.000000 0.000000 4.457448 0.781542 37.096553 -5.700437 7.902315 -10.275293 11.334498 -6.635616 -17.933496 0.000000 0.000000 0.000000 2.825217 4.381119 22.937707 7.777138 1.764964 4.644313 -12.280960 24.131614 25.684182 0.000000 0.000000 0.000000
15.789278 46.311889 372.285724 -4.210199 -4.838332 -24.004517 0.819163 -0.680375 23.631776 0.723819 -0.718780 -0.155074 -19.848791 18.535475 4.105374 0.000000 0.000000 0.000000 87.344796 42.748730 -63.251755 22.524995 -50.186041 3.309813 -18.784053 -7.487401 2.662539 -6.922981 0.861159 18.816125 0.000000 0.000000 0.000000 0.000000 0.000000 0.000000 73.576084 21.964579 -31.196060 -23.368614 25.847934 -51.853695 10.486043 -12.082239 -22.733524 2.600763 -13.484873 -11.514159 0.000000 0.000000 0.000000 0.000000 0.000000 0.000000 3.116560 3.743290 33.843645 -5.901741 7.026979 -9.462696 10.099116 -10.290007 -13.626477 0.000000 0.000000 0.000000 2.122737 5.519165 21.016652 9.318885 3.165792 4.206488 -14.117021 23.224174 25.951934 0.000000 0.000000 0.000000
15.627818 45.870747 372.900441 -4.711408 -7.948780 -20.887347 1.395166 -0.861594 20.281685 0.635391 -0.023835 -0.146852 -18.541972 23.445619 5.105134 0.000000 0.000000 0.000000 99.785221 39.253368 -74.341748 29.214066 -54.746723 10.687769 -19.128333 -2.882475 1.033303 -6.436127 -0.427868 16.978708 0.000000 0.000000 0.000000 0.000000 0.000000 0.000000 91.479966 15.870870 -40.240794 -30.932709 28.726015 -62.542279 3.416168 -11.060466 -24.163093 2.816406 0.914294 -21.566501 0.000000 0.000000 0.000000 0.000000 0.000000 0.000000 1.489271 7.854747 29.349977 -6.003528 5.538676 -8.263541 9.289607 -13.764015 -9.587583 0.000000 0.000000 0.000000 2.457782 12.828247 19.355987 6.859300 -1.479606 2.882943 -15.378054 22.733673 27.128652 0.000000 0.000000 0.000000
15.382519 45.314726 372.766601 -4.818927 -10.354509 -18.655530 1.592982 -1.491544 17.877736 0.440819 0.526460 -0.135043 -16.674149 27.615900 5.641611 0.000000 0.000000 0.000000 108.024668 34.681706 -81.154767 36.762544 -57.096216 17.515388 -17.176376 1.670896 -4.710156 -9.954291 -4.190753 21.811755 0.000000 0.000000 0.000000 0.000000 0.000000 0.000000 99.687665 9.166590 -43.094360 -31.686479 39.521837 -73.736709 -5.119383 -7.118927 -28.136237 4.579644 8.000337 -15.898193 0.000000 0.000000 0.000000 0.000000 0.000000 0.000000 0.046653 11.252917 26.434750 -5.550671 3.247646 -7.746950 8.438728 -15.287694 -7.014112 0.000000 0.000000 0.000000 2.958793 17.367945 16.530761 4.921887 -3.694467 3.161297 -16.064978 21.999717 27.959946 0.000000 0.000000 0.000000
15.127936 44.778295 372.602375 -3.783801 -12.965258 -14.578901 1.326706 -2.165825 13.823162 0.449977 0.819860 -0.107022 -17.924783 32.175134 6.952947 0.000000 0.000000 0.000000 112.904798 30.973852 -86.869581 48.482438 -58.618872 26.964446 -15.562528 5.167356 -10.839206 -14.542243 -6.021737 28.261800 0.000000 0.000000 0.000000 0.000000 0.000000 0.000000 100.553050 5.584745 -44.505444 -24.520465 55.766237 -87.059299 -15.342425 13.362005 -36.686918 20.739631 0.167836 3.120165 0.000000 0.000000 0.000000 0.000000 0.000000 0.000000 -1.087170 14.023383 21.189058 -5.784821 2.149724 -6.511199 8.304615 -15.973673 -5.756652 0.000000 0.000000 0.000000 2.862963 19.953032 11.697742 4.276666 -4.487151 3.637279 -17.204532 21.411500 28.837861 0.000000 0.000000 0.000000
14.847806 44.314387 372.495648 -3.117197 -15.197802 -12.066696 0.959356 -2.004863 11.352935 0.288295 0.833271 -0.081677 -15.680873 34.550390 6.560470 0.000000 0.000000 0.000000 117.361654 29.527956 -93.031174 58.452808 -57.530898 35.627568 -11.270055 1.826660 -18.562744 -14.265697 -8.921753 29.363874 0.000000 0.000000 0.000000 0.000000 0.000000 0.000000 97.165041 7.773384 -45.954474 -3.847155 71.877472 -106.839339 -33.838144 20.075714 -32.638004 47.990932 7.937463 7.984744 0.000000 0.000000 0.000000 0.000000 0.000000 0.000000 -1.743253 16.510378 17.592503 -6.114413 1.334168 -5.362255 8.567059 -15.245184 -5.618165 0.000000 0.000000 0.000000 3.279116 23.175947 8.499100 3.295411 -5.708885 3.996043 -18.854484 21.936136 31.380767 0.000000 0.000000 0.000000
14.609010 43.948709 372.422742 -2.723538 -16.629960 -10.868700 0.565152 -1.383731 10.213212 0.325289 0.362300 -0.090972 -11.398956 34.023015 4.805381 0.000000 0.000000 0.000000 121.817530 30.255471 -100.335791 65.316310 -54.255132 41.588573 -6.209590 -2.287219 -25.024777 -13.842856 -15.239101 33.345615 0.000000 0.000000 0.000000 0.000000 0.000000 0.000000 91.180731 19.685522 -49.921529 18.944999 78.388688 -118.477096 -69.897317 16.397870 -28.017114 96.598803 22.822022 -10.915429 0.000000 0.000000 0.000000 0.000000 0.000000 0.000000 -2.086519 18.131348 15.362595 -6.634243 0.990145 -4.264745 9.707802 -13.182567 -8.496594 0.000000 0.000000 0.000000 3.665052 25.401157 6.658026 2.370482 -6.646253 4.284119 -18.089678 20.251232 29.486650 0.000000 0.000000 0.000000
14.623479 43.886328 372.382978 -1.909179 -17.890325 -12.332939 0.285021 -1.057808 11.832430 0.005037 0.284082 -0.041095 -5.915577 33.692733 2.476230 0.000000 0.000000 0.000000 128.619352 32.987118 -112.045687 73.948247 -48.898501 49.344143 -1.133705 -15.295104 -31.016939 -18.470145 -10.447547 40.459172 0.000000 0.000000 0.000000 0.000000 0.000000 0.000000 64.327399 41.879149 -40.499578 71.599834 78.484903 -139.193197 -100.259650 13.815507 -34.733624 133.779527 11.381295 -28.658010 0.000000 0.000000 0.000000 0.000000 0.000000 0.000000 -3.727809 19.219398 16.950790 -7.016907 1.195142 -3.951504 10.738675 -10.573534 -10.236233 0.000000 0.000000 0.000000 1.644946 26.177145 8.726600 2.587107 -6.664091 4.074768 -19.752333 18.931516 29.942650 0.000000 0.000000 0.000000
14.357398 43.828516 372.234773 -2.009998 -18.114672 -11.364608 0.341128 -0.392482 10.826480 0.306765 -0.045668 -0.071517 1.821335 30.647092 -0.834816 0.000000 0.000000 0.000000 141.223744 38.221450 -132.996936 88.497680 -39.317860 61.197196 -1.036489 -27.328477 -32.270367 -17.868753 -3.991794 38.750613 0.000000 0.000000 0.000000 0.000000 0.000000 0.000000 39.465208 50.595717 -24.547142 128.915188 81.220171 -179.065478 -119.744532 13.659245 -35.988711 152.793674 -7.339259 -35.137740 0.000000 0.000000 0.000000 0.000000 0.000000 0.000000 -3.411199 19.802094 15.069917 -7.199310 0.990867 -3.099201 11.733653 -6.774813 -11.997962 0.000000 0.000000 0.000000 2.252807 25.968456 6.503011 2.392014 -6.516030 5.009175 -21.939800 18.112839 31.928042 0.000000 0.000000 0.000000
14.138106 43.775712 372.178692 -0.247736 -18.720709 -4.916551 0.451733 -0.442225 4.688121 0.309912 -0.046239 0.005468 5.602638 29.236038 -2.805645 0.000000 0.000000 0.000000 149.672923 43.117027 -149.591205 91.837454 -32.121292 60.373986 -4.241106 -29.455587 -24.322335 -15.647958 8.951997 27.148102 0.000000 0.000000 0.000000 0.000000 0.000000 0.000000 32.802989 56.022091 -21.704631 93.265028 86.879609 -138.572549 -157.467507 7.000098 -46.954373 161.023806 -40.155807 -62.660227 0.000000 0.000000 0.000000 0.000000 0.000000 0.000000 -2.988925 20.751497 7.768366 -7.241608 0.930610 -2.025792 10.757604 -7.082152 -8.335007 0.000000 0.000000 0.000000 3.452338 25.500625 -1.730220 1.622012 -6.729205 6.291632 -25.475358 16.632388 35.684447 0.000000 0.000000 0.000000
13.815607 44.238679 371.984728 2.825511 -19.681385 -3.290878 0.866141 -0.758830 3.632910 0.274813 0.043789 0.146297 3.762759 28.697477 -2.983412 0.000000 0.000000 0.000000 155.509853 49.051467 -163.458851 85.722381 -25.850016 51.426276 -2.761099 -26.427591 -18.648688 -16.456566 -0.636721 33.600516 0.000000 0.000000 0.000000 0.000000 0.000000 0.000000 29.748234 67.379667 -23.307494 -32.307142 74.114900 -10.967242 -175.169187 -2.087810 -58.247566 148.243723 -49.400564 -89.756084 0.000000 0.000000 0.000000 0.000000 0.000000 0.000000 -5.283852 20.886872 6.708628 -7.403041 1.941459 -1.570087 8.778445 -10.118643 -1.709963 0.000000 0.000000 0.000000 0.207711 24.938227 -3.305066 1.814159 -5.783787 7.217266 -29.607205 14.199844 39.029866 0.000000 0.000000 0.000000
13.719736 44.628581 371.716305 5.679426 -20.410692 8.640278 0.544229 -0.544566 -7.664357 0.402631 -0.413418 0.258911 7.137461 27.456973 -4.950715 0.000000 0.000000 0.000000 159.245796 55.958663 -172.118080 71.438955 -21.530510 41.597061 -4.766854 -17.141547 -7.635667 -11.239105 -14.526422 21.675166 0.000000 0.000000 0.000000 0.000000 0.000000 0.000000 97.143434 80.655642 -92.208576 -39.874019 39.647512 -14.237043 157.220711 -2.393480 -98.742835 130.146462 -36.440506 -138.365783 0.000000 0.000000 0.000000 0.000000 0.000000 0.000000 -3.275788 21.759563 -5.335585 -7.456752 3.056061 -1.163957 7.079654 -11.960250 4.096302 0.000000 0.000000 0.000000 2.413749 24.559618 -17.878920 0.732222 -5.977671 9.279919 -33.897275 11.283675 44.007060 0.000000 0.000000 0.000000
13.441012 45.844436 371.239000 9.678934 -21.745734 20.150064 0.232884 -0.677317 -18.190551 0.320404 -0.251039 0.415502 7.277992 27.592553 -6.060540 0.000000 0.000000 0.000000 158.493285 62.243819 -175.151556 51.824451 -19.497743 34.380284 -17.602243 -8.693917 11.881245 -3.489393 -25.143654 -7.012305 0.000000 0.000000 0.000000 0.000000 0.000000 0.000000 158.509882 69.581574 -156.868025 -44.706877 3.427180 -25.184097 -82.214802 -55.653070 -29.953845 49.294112 6.546127 -21.037481 0.000000 0.000000 0.000000 0.000000 0.000000 0.000000 -2.041757 22.388808 -16.246159 -8.138390 5.544668 -0.814703 6.022780 -13.204540 8.123330 0.000000 0.000000 0.000000 2.100560 24.532050 -31.235233 0.828748 -4.204576 11.897424 -37.524447 7.956107 47.291713 0.000000 0.000000 0.000000
12.948153 46.976172 370.821506 14.006615 -22.752297 26.848012 -0.419185 -0.306349 -23.688829 0.181535 -0.424282 0.599482 6.228485 27.894719 -6.611350 0.000000 0.000000 0.000000 150.035780 68.322790 -168.414011 29.306229 -17.997214 28.521417 -22.429837 -14.147744 18.587344 1.980370 -24.043875 -19.314371 0.000000 0.000000 0.000000 0.000000 0.000000 0.000000 173.574475 64.554470 -177.378684 -49.751729 -20.270771 -30.710906 -10.522324 -20.024221 -4.143330 29.071359 -48.103268 36.224550 0.000000 0.000000 0.000000 0.000000 0.000000 0.000000 -3.084617 23.234109 -21.739695 -8.547229 7.193932 -0.517231 5.014119 -15.132763 11.717389 0.000000 0.000000 0.000000 -0.627568 25.684173 -37.974657 1.217753 -2.137261 13.716236 -40.049403 5.636210 49.443908 0.000000 0.000000 0.000000
12.432266 47.973758 370.536644 18.111736 -23.544928 28.712376 -0.636414 -0.389377 -24.404295 0.192576 -0.586176 0.789153 3.022239 29.609775 -6.620027 0.000000 0.000000 0.000000 139.661570 73.791652 -160.473524 12.389995 -16.884570 25.595354 -21.547722 -23.329639 14.121098 10.705236 -16.481378 -21.551728 0.000000 0.000000 0.000000 0.000000 0.000000 0.000000 -175.996281 62.254354 165.927429 -50.619217 -35.937387 -34.119870 -1.760861 -6.866951 -4.957776 39.728041 -53.693394 54.063881 0.000000 0.000000 0.000000 0.000000 0.000000 0.000000 -5.991071 24.050366 -21.808789 -8.736482 8.381138 -0.388901 4.340240 -17.853396 14.368492 0.000000 0.000000 0.000000 -5.268199 27.235127 -37.989901 2.450817 0.285009 14.513288 -41.965456 4.746163 50.401394 0.000000 0.000000 0.000000
